<?xml version="1.0" encoding="UTF-8"?>
<svg id="Layer_1" data-name="Layer 1" xmlns="http://www.w3.org/2000/svg" version="1.1" viewBox="0 0 210 210">
  <defs>
    <style>
      .cls-1 {
        fill: #c4c4c4;
        stroke-width: 0px;
      }

      .cls-2 {
        fill: #fff;
        stroke: #fff;
        stroke-miterlimit: 10;
        stroke-width: 7px;
      }
    </style>
  </defs>
  <path class="cls-1" d="M105.2,5.1h0c55.2,0,100,44.8,100,100h0c0,55.2-44.8,100-100,100h0c-55.2,0-100-44.8-100-100h0C5.2,49.9,50,5.1,105.2,5.1Z"/>
  <path class="cls-2" d="M85.9,145c-1.7,0-3.3-.7-4.5-1.9l-24.3-24.3c-2.5-2.5-2.5-6.5,0-9s6.5-2.5,9,0l19.8,19.8,58.4-58.4c2.5-2.5,6.5-2.5,9,0s2.5,6.5,0,9l-62.9,62.9c-1.2,1.2-2.8,1.9-4.5,1.9h0Z"/>
</svg>